<mxfile host="app.diagrams.net" modified="2021-09-27T01:32:58.428Z" agent="5.0 (Macintosh; Intel Mac OS X 10_15_3) AppleWebKit/537.36 (KHTML, like Gecko) Chrome/93.0.4577.82 Safari/537.36" etag="LwseTpF3J4OeqeyMmFmO" version="15.3.3" type="github">
  <diagram id="9h8YTjkFbfDPBxAM4ydI" name="第 1 页">
    <mxGraphModel dx="2066" dy="1126" grid="1" gridSize="10" guides="1" tooltips="1" connect="1" arrows="1" fold="1" page="1" pageScale="1" pageWidth="827" pageHeight="1169" math="0" shadow="0">
      <root>
        <mxCell id="0" />
        <mxCell id="1" parent="0" />
        <mxCell id="R4kuBs2tM5i7ZYHnS_I6-1" value="" style="shape=cylinder3;whiteSpace=wrap;html=1;boundedLbl=1;backgroundOutline=1;size=15;hachureGap=4;pointerEvents=0;" vertex="1" parent="1">
          <mxGeometry x="200" y="380" width="60" height="80" as="geometry" />
        </mxCell>
        <mxCell id="R4kuBs2tM5i7ZYHnS_I6-2" value="" style="shape=parallelogram;perimeter=parallelogramPerimeter;whiteSpace=wrap;html=1;fixedSize=1;hachureGap=4;pointerEvents=0;" vertex="1" parent="1">
          <mxGeometry x="710" y="440" width="120" height="60" as="geometry" />
        </mxCell>
      </root>
    </mxGraphModel>
  </diagram>
</mxfile>
